<svg width="302.96" height="55.442" viewBox="0 0 302.96 55.442" xmlns="http://www.w3.org/2000/svg">
<g id="svgGroup" stroke-linecap="round" fill-rule="evenodd" font-size="9pt" stroke="#9e50ba" stroke-width="0.5mm" fill="#50a1baf9" style="stroke:#9e50ba;stroke-width:0.5mm;fill:#50a1baf9">
<path d="M 35.92 10.56 L 35.92 14.16 A 95.179 95.179 0 0 0 36.3 22.845 A 75.149 75.149 0 0 0 37.12 29.04 A 79.428 79.428 0 0 0 38.011 33.413 Q 38.511 35.538 39.083 37.332 A 34.502 34.502 0 0 0 40.08 40.08 A 21.491 21.491 0 0 0 42.412 44.502 A 17.801 17.801 0 0 0 44.96 47.44 Q 45.92 48.24 46.24 48.84 Q 46.56 49.44 46.56 50.08 Q 46.56 51.28 45.64 52.48 A 7.371 7.371 0 0 1 43.723 54.217 A 8.691 8.691 0 0 1 43.28 54.48 Q 41.84 55.28 40.32 55.28 A 5.098 5.098 0 0 1 36.505 53.599 A 7.228 7.228 0 0 1 36.12 53.16 Q 34.622 51.314 33.215 47.374 A 49.055 49.055 0 0 1 32.8 46.16 A 51.029 51.029 0 0 1 31.685 42.34 A 45.378 45.378 0 0 1 31.48 41.48 A 40.376 40.376 0 0 1 30.802 37.718 A 36.227 36.227 0 0 1 30.72 37.04 A 13.804 13.804 0 0 1 30.166 37.835 Q 29.45 38.783 28.84 39.16 Q 28.017 39.67 26.463 39.68 A 9.697 9.697 0 0 1 26.4 39.68 Q 22.48 39.68 18.08 39.56 Q 14.299 39.457 11.227 39.384 A 1421.399 1421.399 0 0 0 10.24 39.36 Q 10.08 40.8 9.96 42.28 Q 9.84 43.76 9.84 45.2 Q 9.84 46.48 9.96 47.76 Q 10.08 49.04 10.16 50.24 A 4.41 4.41 0 0 1 10.186 50.71 Q 10.186 52.319 8.926 53.433 A 5.239 5.239 0 0 1 8.4 53.84 A 7.648 7.648 0 0 1 5.606 54.993 A 10.753 10.753 0 0 1 3.44 55.2 Q 1.23 55.2 0.928 53.531 A 3.206 3.206 0 0 1 0.88 52.96 A 7.643 7.643 0 0 1 0.937 52.09 Q 1.037 51.228 1.313 50.034 A 37.782 37.782 0 0 1 1.6 48.88 Q 2 47.04 2.24 45.72 A 20.577 20.577 0 0 0 2.367 44.946 Q 2.472 44.203 2.48 43.675 A 5.573 5.573 0 0 0 2.48 43.6 Q 2.48 42.286 2.012 41.467 A 2.436 2.436 0 0 0 1.12 40.56 A 2.865 2.865 0 0 1 0.566 40.157 A 1.701 1.701 0 0 1 0 38.88 Q 0 38.183 0.232 37.274 A 11.891 11.891 0 0 1 0.44 36.56 Q 0.88 35.2 1.6 34.04 A 10.354 10.354 0 0 1 2.031 33.397 Q 2.515 32.734 2.96 32.4 A 5.243 5.243 0 0 1 3.496 32.136 Q 3.777 32.015 4.1 31.909 A 9.093 9.093 0 0 1 4.32 31.84 Q 4.925 31.659 5.758 31.569 A 13.77 13.77 0 0 1 6.32 31.52 Q 9.44 22.56 13.32 16.04 A 49.02 49.02 0 0 1 16.494 11.315 Q 18.262 9.006 20.126 7.25 A 26.068 26.068 0 0 1 21.6 5.96 Q 25.871 2.505 30.293 2.403 A 11.666 11.666 0 0 1 30.56 2.4 A 6.553 6.553 0 0 1 32.143 2.579 A 4.105 4.105 0 0 1 34.64 4.28 Q 35.92 6.16 35.92 10.56 Z M 24.48 30.64 L 30.08 30.64 Q 29.92 28.4 29.8 25.92 Q 29.68 23.44 29.68 20.72 L 29.68 16.08 A 16.457 16.457 0 0 0 29.655 15.14 Q 29.572 13.691 29.21 13.078 A 1.402 1.402 0 0 0 29.16 13 Q 28.64 12.24 27.2 12.24 A 6.83 6.83 0 0 0 23.831 13.186 Q 21.7 14.382 19.57 17.09 A 26.05 26.05 0 0 0 19.36 17.36 Q 16.24 21.435 13.83 27.689 A 68.776 68.776 0 0 0 12.64 31.04 Q 15.335 30.93 17.576 30.839 A 18882.2 18882.2 0 0 1 19.52 30.76 Q 22.48 30.64 24.48 30.64 Z" id="0" vector-effect="non-scaling-stroke"/><path d="M 60.16 55.44 Q 55.36 55.44 52.6 52.24 A 10.8 10.8 0 0 1 50.378 47.941 Q 49.941 46.329 49.859 44.418 A 20.963 20.963 0 0 1 49.84 43.52 Q 49.84 39.44 51.16 35.52 Q 52.48 31.6 54.88 28.48 A 19.312 19.312 0 0 1 59.296 24.264 A 18.036 18.036 0 0 1 60.48 23.52 Q 63.68 21.68 67.44 21.68 Q 69.84 21.68 71.72 22.4 A 13.483 13.483 0 0 1 74.085 23.572 A 11.715 11.715 0 0 1 75.04 24.24 A 122.045 122.045 0 0 0 74.869 19.233 Q 74.736 16.866 74.511 14.76 A 73.387 73.387 0 0 0 74.48 14.48 A 23.657 23.657 0 0 0 72.385 6.943 A 22.518 22.518 0 0 0 72.16 6.48 Q 71.84 5.84 71.64 5.32 A 3.109 3.109 0 0 1 71.484 4.779 A 2.48 2.48 0 0 1 71.44 4.32 Q 71.44 3.2 72.36 2.24 A 7.183 7.183 0 0 1 73.871 1.049 A 8.793 8.793 0 0 1 74.64 0.64 A 7.415 7.415 0 0 1 75.789 0.206 Q 76.463 0.016 77.094 0.002 A 4.541 4.541 0 0 1 77.2 0 A 3.895 3.895 0 0 1 78.689 0.273 Q 79.618 0.654 80.242 1.565 A 4.706 4.706 0 0 1 80.44 1.88 A 8.76 8.76 0 0 1 81.143 3.482 Q 81.423 4.322 81.608 5.33 A 20.226 20.226 0 0 1 81.84 7 A 62.418 62.418 0 0 1 82.07 10.24 Q 82.149 11.947 82.159 13.852 A 105.79 105.79 0 0 1 82.16 14.4 A 113.609 113.609 0 0 1 82.022 20.138 A 82.515 82.515 0 0 1 81.6 25.36 A 713.179 713.179 0 0 1 81.125 29.401 Q 80.904 31.238 80.697 32.862 A 388.3 388.3 0 0 1 80.56 33.92 A 1901.017 1901.017 0 0 1 80.331 35.63 Q 80.241 36.305 80.158 36.918 A 1032.461 1032.461 0 0 1 80 38.08 A 34.766 34.766 0 0 0 79.873 39.118 Q 79.76 40.19 79.76 40.96 A 9.885 9.885 0 0 0 80.046 43.439 Q 80.942 46.892 84.64 47.68 A 1.765 1.765 0 0 1 85.259 47.91 Q 85.711 48.194 85.854 48.768 A 2.453 2.453 0 0 1 85.92 49.36 Q 85.92 50.222 85.422 51.544 A 13.324 13.324 0 0 1 85.4 51.6 Q 84.88 52.96 83.52 54.04 A 4.456 4.456 0 0 1 82.1 54.779 Q 81.471 54.982 80.707 55.064 A 10.329 10.329 0 0 1 79.6 55.12 Q 77.472 55.12 76.202 54.233 A 3.901 3.901 0 0 1 74.96 52.8 A 8.429 8.429 0 0 1 74.327 51.116 Q 73.843 49.313 73.772 46.681 A 34.374 34.374 0 0 1 73.76 45.76 Q 71.52 49.84 68.08 52.64 Q 64.64 55.44 60.16 55.44 Z M 62.64 46.88 A 7.508 7.508 0 0 0 65.571 46.264 A 10.138 10.138 0 0 0 67.12 45.44 A 13.758 13.758 0 0 0 69.972 42.97 A 17.11 17.11 0 0 0 71.12 41.52 A 18.689 18.689 0 0 0 72.328 39.477 A 23.335 23.335 0 0 0 73 38.04 Q 73.84 36.08 74.56 34.08 A 14.964 14.964 0 0 0 70.699 31.509 A 12.453 12.453 0 0 0 65.52 30.4 Q 61.2 30.4 58.64 33 Q 56.08 35.6 56.08 39.44 A 9.148 9.148 0 0 0 56.395 41.902 A 6.962 6.962 0 0 0 58 44.8 A 6.546 6.546 0 0 0 60.03 46.319 A 6.071 6.071 0 0 0 62.64 46.88 Z" id="1" vector-effect="non-scaling-stroke"/><path d="M 100.003 55.036 A 16.491 16.491 0 0 0 103.76 55.44 Q 109.04 55.44 113 52.88 Q 116.96 50.32 119.2 45.96 Q 121.44 41.6 121.44 36.24 A 24.122 24.122 0 0 0 121.431 35.576 Q 121.254 29.173 117.64 25.52 A 11.747 11.747 0 0 0 116.302 24.357 Q 114.169 22.77 111.281 22.124 A 19.787 19.787 0 0 0 106.96 21.68 A 28.982 28.982 0 0 0 106.516 21.684 Q 104.385 21.716 102.517 22.065 A 16.866 16.866 0 0 0 98.32 23.4 A 51.703 51.703 0 0 0 97.64 23.731 Q 95.617 24.734 94.269 25.639 A 13.15 13.15 0 0 0 93.04 26.56 A 5.004 5.004 0 0 0 92.667 26.883 Q 92.125 27.398 91.56 28.2 A 3.549 3.549 0 0 0 91.207 28.834 Q 90.989 29.338 90.888 29.958 A 7.227 7.227 0 0 0 90.8 31.12 A 6.14 6.14 0 0 0 90.832 31.741 A 6.96 6.96 0 0 0 91.16 33.24 Q 91.379 33.899 91.822 34.156 A 1.286 1.286 0 0 0 92.48 34.32 A 1.036 1.036 0 0 0 92.491 34.32 Q 92.98 34.315 93.835 33.851 A 10.629 10.629 0 0 0 94.4 33.52 Q 93.12 35.76 92.36 38.32 Q 91.6 40.88 91.6 43.6 A 19.44 19.44 0 0 0 91.619 44.474 Q 91.853 49.669 94.92 52.44 A 11.254 11.254 0 0 0 100.003 55.036 Z M 106.24 47.28 A 10.508 10.508 0 0 0 109.877 46.67 A 9.378 9.378 0 0 0 113 44.76 A 8.342 8.342 0 0 0 115.705 39.218 A 11.571 11.571 0 0 0 115.76 38.08 A 10.424 10.424 0 0 0 115.52 35.762 Q 115.18 34.273 114.359 33.21 A 5.718 5.718 0 0 0 112.96 31.92 A 11.231 11.231 0 0 0 107.609 30.125 A 13.948 13.948 0 0 0 106.48 30.08 Q 104.8 30.08 103.44 30.4 Q 102.08 30.72 100.88 31.2 A 19.94 19.94 0 0 0 99.453 33.589 A 23.686 23.686 0 0 0 98.88 34.8 A 10.503 10.503 0 0 0 98.031 38.314 A 12.513 12.513 0 0 0 98 39.2 A 10.596 10.596 0 0 0 98.252 41.588 Q 98.634 43.24 99.595 44.42 A 6.286 6.286 0 0 0 100.4 45.24 Q 102.8 47.28 106.24 47.28 Z" id="2" vector-effect="non-scaling-stroke"/><path d="M 130.36 54.84 A 2.744 2.744 0 0 0 130.855 55.062 Q 131.499 55.28 132.4 55.28 Q 135.2 55.28 136.84 53.36 A 6.595 6.595 0 0 0 138.209 50.714 A 8.774 8.774 0 0 0 138.48 48.48 Q 138.48 47.52 138.44 45.44 Q 138.4 43.36 138.32 41.36 A 28.716 28.716 0 0 1 138.539 38.511 Q 138.978 35.139 140.24 32.96 A 10.087 10.087 0 0 1 140.949 31.888 Q 141.475 31.201 142.045 30.753 A 3.617 3.617 0 0 1 144.32 29.92 A 3.056 3.056 0 0 1 145.994 30.396 A 3.715 3.715 0 0 1 146.88 31.2 A 1.289 1.289 0 0 0 147.056 31.393 A 0.907 0.907 0 0 0 147.44 31.6 A 3.385 3.385 0 0 0 147.579 31.632 Q 147.691 31.655 147.792 31.667 A 1.763 1.763 0 0 0 148 31.68 A 2.205 2.205 0 0 0 148.113 31.678 Q 149.124 31.626 150.115 30.645 A 7.421 7.421 0 0 0 150.84 29.8 A 8.171 8.171 0 0 0 151.13 29.386 A 6.519 6.519 0 0 0 152.24 25.76 A 5.103 5.103 0 0 0 152.113 24.584 A 3.097 3.097 0 0 0 150.8 22.64 Q 149.934 22.063 148.807 21.833 A 8.029 8.029 0 0 0 147.2 21.68 A 9.928 9.928 0 0 0 146.015 21.749 A 7.403 7.403 0 0 0 141.88 23.56 Q 140.688 24.618 139.71 26.093 A 17.913 17.913 0 0 0 138.32 28.64 A 15.318 15.318 0 0 0 138.28 27.508 Q 138.203 26.469 137.978 25.587 A 7.385 7.385 0 0 0 137.24 23.72 A 3.536 3.536 0 0 0 136.469 22.783 Q 135.804 22.215 134.84 21.989 A 6.146 6.146 0 0 0 133.44 21.84 Q 131.36 21.84 129.76 22.84 Q 128.16 23.84 127.28 25.2 Q 126.782 25.971 126.565 26.664 A 3.413 3.413 0 0 0 126.4 27.68 A 1.951 1.951 0 0 0 126.439 28.08 A 1.307 1.307 0 0 0 126.84 28.8 Q 127.28 29.2 127.84 29.44 A 7.023 7.023 0 0 1 128.673 29.758 A 5.562 5.562 0 0 1 130 30.6 Q 130.88 31.36 131.4 33.32 A 10.289 10.289 0 0 1 131.596 34.245 Q 131.92 36.172 131.92 39.52 A 37.209 37.209 0 0 1 131.873 41.388 A 42.877 42.877 0 0 1 131.32 46.36 Q 130.72 49.92 129.84 53.36 A 2.389 2.389 0 0 0 129.799 53.587 Q 129.725 54.147 129.983 54.508 A 1.181 1.181 0 0 0 130.36 54.84 Z" id="3" vector-effect="non-scaling-stroke"/><path d="M 161.897 55.029 A 17.094 17.094 0 0 0 165.76 55.44 Q 173.12 55.44 178.48 50.32 A 27.247 27.247 0 0 0 178.524 50.278 Q 181.52 47.428 181.52 45.68 A 2.346 2.346 0 0 0 181.515 45.533 A 1.756 1.756 0 0 0 181 44.36 A 1.714 1.714 0 0 0 180.337 43.944 A 2.014 2.014 0 0 0 179.68 43.84 Q 178.72 43.84 177.6 44.8 A 12.159 12.159 0 0 1 176.026 45.89 A 14.663 14.663 0 0 1 173.4 47.08 Q 170.96 47.92 168.64 47.92 Q 164.8 47.92 162.36 45.68 A 7.46 7.46 0 0 1 160.311 42.561 A 9.212 9.212 0 0 1 159.84 39.76 Q 162.88 41.92 167.68 41.92 A 18.746 18.746 0 0 0 169.125 41.866 A 15.563 15.563 0 0 0 174.8 40.36 A 15.853 15.853 0 0 0 175.769 39.847 A 13.204 13.204 0 0 0 179.92 36.16 Q 181.84 33.52 181.84 30.4 A 10.105 10.105 0 0 0 181.815 29.677 A 7.596 7.596 0 0 0 178.96 24.12 Q 177.115 22.609 174.482 22.065 A 15.846 15.846 0 0 0 171.28 21.76 Q 166.24 21.76 162.04 24.52 Q 157.84 27.28 155.36 31.92 A 20.446 20.446 0 0 0 153.948 35.233 A 22.494 22.494 0 0 0 152.88 42.24 A 22.163 22.163 0 0 0 152.888 42.855 Q 152.947 44.983 153.42 46.775 A 11.432 11.432 0 0 0 156.28 51.96 A 10.741 10.741 0 0 0 156.861 52.512 Q 158.938 54.343 161.897 55.029 Z M 166.96 36.64 A 11.438 11.438 0 0 0 169.064 36.457 Q 170.328 36.221 171.347 35.679 A 6.815 6.815 0 0 0 171.76 35.44 A 5.147 5.147 0 0 0 172.731 34.671 A 3.16 3.16 0 0 0 173.68 32.4 A 2.866 2.866 0 0 0 173.452 31.239 Q 173.179 30.615 172.578 30.165 A 3.516 3.516 0 0 0 172.4 30.04 A 4.572 4.572 0 0 0 171.149 29.481 Q 170.175 29.2 168.88 29.2 A 9.455 9.455 0 0 0 165.96 29.637 A 8.211 8.211 0 0 0 163.72 30.76 A 8.376 8.376 0 0 0 160.855 34.357 A 10.551 10.551 0 0 0 160.56 35.12 Q 161.503 35.726 162.899 36.106 A 13.344 13.344 0 0 0 163.44 36.24 Q 165.2 36.64 166.96 36.64 Z" id="4" vector-effect="non-scaling-stroke"/><path d="M 213.949 54.993 A 6.237 6.237 0 0 0 215.52 55.2 A 13.55 13.55 0 0 0 216.064 55.19 Q 218.893 55.076 220.72 53.76 Q 222.72 52.32 222.72 50.56 A 2.988 2.988 0 0 0 222.249 48.968 A 4.47 4.47 0 0 0 221.6 48.16 Q 220 46.64 219.48 44.52 Q 219.188 43.328 219.06 41.92 A 25.664 25.664 0 0 1 218.96 39.6 Q 218.96 36.4 219.32 32.52 Q 219.68 28.64 220.16 24.64 Q 221.04 17.92 221.28 12.64 Q 223.12 12.16 224.96 11.88 Q 226.8 11.6 228.56 11.6 A 19.587 19.587 0 0 1 228.804 11.602 Q 233.438 11.66 236.4 13.92 Q 239.44 16.24 239.44 20.32 A 10.765 10.765 0 0 1 239.429 20.805 A 8.125 8.125 0 0 1 236.68 26.72 A 9.328 9.328 0 0 1 232.707 28.822 A 12.747 12.747 0 0 1 229.52 29.2 A 15.518 15.518 0 0 1 229.449 29.2 Q 228.92 29.198 228.444 29.159 A 9.47 9.47 0 0 1 227.52 29.04 A 189.532 189.532 0 0 0 227.129 28.97 Q 226.528 28.862 226.16 28.8 Q 225.68 28.64 225.2 28.56 A 10.036 10.036 0 0 0 224.997 28.528 Q 224.786 28.498 224.634 28.487 A 2.135 2.135 0 0 0 224.48 28.48 A 1.726 1.726 0 0 0 224.362 28.484 Q 223.746 28.527 223.437 29.02 A 1.752 1.752 0 0 0 223.24 29.48 A 7.225 7.225 0 0 0 223.049 30.394 A 8.977 8.977 0 0 0 222.96 31.68 Q 222.96 33.075 223.289 34.103 A 4.338 4.338 0 0 0 224 35.48 Q 225.04 36.8 228 36.8 A 14.495 14.495 0 0 0 230.753 36.532 A 17.418 17.418 0 0 0 234.36 35.4 A 19.402 19.402 0 0 0 235.755 34.73 A 21.196 21.196 0 0 0 240.36 31.4 Q 243.12 28.8 244.8 25.28 A 16.843 16.843 0 0 0 245.495 23.595 A 17.996 17.996 0 0 0 246.48 17.6 A 18.621 18.621 0 0 0 246.432 16.247 A 13.418 13.418 0 0 0 241.8 6.72 Q 237.12 2.64 229.36 2.64 Q 225.44 2.64 221.64 3.64 A 40.588 40.588 0 0 0 221.522 3.672 Q 217.796 4.664 215.04 6.16 A 21.749 21.749 0 0 0 214.8 6.289 Q 212.114 7.75 211.08 9.32 A 6.347 6.347 0 0 0 210.185 11.503 A 8.85 8.85 0 0 0 210 13.36 A 8.674 8.674 0 0 0 210.016 13.903 Q 210.148 16 211.36 16 A 2.48 2.48 0 0 0 211.819 15.956 A 3.109 3.109 0 0 0 212.36 15.8 A 6.994 6.994 0 0 0 212.823 15.602 A 8.716 8.716 0 0 0 213.44 15.28 Q 213.68 17.04 213.76 18.88 Q 213.84 20.72 213.84 22.32 Q 213.84 26.4 213.48 30.4 A 132.139 132.139 0 0 1 213.275 32.497 A 114.257 114.257 0 0 1 212.56 38 Q 212 41.52 211.64 44.6 Q 211.28 47.68 211.28 49.68 A 17.812 17.812 0 0 0 211.286 50.15 Q 211.322 51.522 211.576 52.46 A 4.292 4.292 0 0 0 211.92 53.36 Q 212.56 54.56 213.56 54.88 A 7.264 7.264 0 0 0 213.949 54.993 Z" id="6" vector-effect="non-scaling-stroke"/><path d="M 254.297 55.029 A 17.094 17.094 0 0 0 258.16 55.44 Q 265.52 55.44 270.88 50.32 A 27.247 27.247 0 0 0 270.924 50.278 Q 273.92 47.428 273.92 45.68 A 2.346 2.346 0 0 0 273.915 45.533 A 1.756 1.756 0 0 0 273.4 44.36 A 1.714 1.714 0 0 0 272.737 43.944 A 2.014 2.014 0 0 0 272.08 43.84 Q 271.12 43.84 270 44.8 A 12.159 12.159 0 0 1 268.426 45.89 A 14.663 14.663 0 0 1 265.8 47.08 Q 263.36 47.92 261.04 47.92 Q 257.2 47.92 254.76 45.68 A 7.46 7.46 0 0 1 252.711 42.561 A 9.212 9.212 0 0 1 252.24 39.76 Q 255.28 41.92 260.08 41.92 A 18.746 18.746 0 0 0 261.525 41.866 A 15.563 15.563 0 0 0 267.2 40.36 A 15.853 15.853 0 0 0 268.169 39.847 A 13.204 13.204 0 0 0 272.32 36.16 Q 274.24 33.52 274.24 30.4 A 10.105 10.105 0 0 0 274.215 29.677 A 7.596 7.596 0 0 0 271.36 24.12 Q 269.515 22.609 266.882 22.065 A 15.846 15.846 0 0 0 263.68 21.76 Q 258.64 21.76 254.44 24.52 Q 250.24 27.28 247.76 31.92 A 20.446 20.446 0 0 0 246.348 35.233 A 22.494 22.494 0 0 0 245.28 42.24 A 22.163 22.163 0 0 0 245.288 42.855 Q 245.347 44.983 245.82 46.775 A 11.432 11.432 0 0 0 248.68 51.96 A 10.741 10.741 0 0 0 249.261 52.512 Q 251.338 54.343 254.297 55.029 Z M 259.36 36.64 A 11.438 11.438 0 0 0 261.464 36.457 Q 262.728 36.221 263.747 35.679 A 6.815 6.815 0 0 0 264.16 35.44 A 5.147 5.147 0 0 0 265.131 34.671 A 3.16 3.16 0 0 0 266.08 32.4 A 2.866 2.866 0 0 0 265.852 31.239 Q 265.579 30.615 264.978 30.165 A 3.516 3.516 0 0 0 264.8 30.04 A 4.572 4.572 0 0 0 263.549 29.481 Q 262.575 29.2 261.28 29.2 A 9.455 9.455 0 0 0 258.36 29.637 A 8.211 8.211 0 0 0 256.12 30.76 A 8.376 8.376 0 0 0 253.255 34.357 A 10.551 10.551 0 0 0 252.96 35.12 Q 253.903 35.726 255.299 36.106 A 13.344 13.344 0 0 0 255.84 36.24 Q 257.6 36.64 259.36 36.64 Z" id="7" vector-effect="non-scaling-stroke"/><path d="M 285.08 52.2 A 6.743 6.743 0 0 0 286.297 53.604 Q 288.406 55.44 292.08 55.44 A 14.366 14.366 0 0 0 294.647 55.22 A 10.533 10.533 0 0 0 298.72 53.6 Q 301.44 51.76 301.44 49.12 A 3.538 3.538 0 0 0 301.403 48.591 Q 301.362 48.316 301.273 48.099 A 1.288 1.288 0 0 0 300.88 47.56 A 1.407 1.407 0 0 0 300.647 47.413 Q 300.07 47.12 298.96 47.12 Q 296.348 47.12 294.468 46.528 A 7.729 7.729 0 0 1 292.24 45.44 A 4.361 4.361 0 0 1 292.126 45.355 Q 290.503 44.097 290.074 41.316 A 14.449 14.449 0 0 1 289.92 39.12 A 20.324 20.324 0 0 1 289.923 38.751 Q 289.942 37.742 290.059 36.616 A 34.54 34.54 0 0 1 290.36 34.44 Q 290.8 31.84 291.36 29.36 Q 293.6 29.36 295.2 29.6 Q 296.8 29.84 297.84 30.08 A 36.575 36.575 0 0 0 298.317 30.173 Q 298.543 30.215 298.746 30.249 A 17.918 17.918 0 0 0 299.2 30.32 Q 299.76 30.4 300 30.4 A 1.336 1.336 0 0 0 300.591 30.26 Q 301.369 29.881 302.04 28.48 Q 302.96 26.56 302.96 24.64 Q 302.96 23.706 302.702 23.081 A 1.929 1.929 0 0 0 301.96 22.16 A 3.428 3.428 0 0 0 301.159 21.792 Q 300.318 21.52 299.12 21.52 Q 297.68 21.52 296.12 21.76 Q 294.56 22 293.04 22.32 Q 293.2 21.44 293.32 20.6 A 12.648 12.648 0 0 0 293.335 20.496 A 11.526 11.526 0 0 0 293.44 18.96 Q 293.44 17.559 293.066 16.804 A 1.452 1.452 0 0 0 291.68 15.92 Q 290.642 15.92 289.293 16.689 A 11.924 11.924 0 0 0 288.2 17.4 A 25.701 25.701 0 0 0 286.383 18.853 A 32.919 32.919 0 0 0 284.12 21.04 Q 282.08 23.2 280.72 25.4 A 16.066 16.066 0 0 0 280.576 25.638 Q 279.802 26.94 279.521 27.995 A 4.383 4.383 0 0 0 279.36 29.12 Q 279.36 30.262 280.467 30.499 A 3.141 3.141 0 0 0 281.12 30.56 Q 282.8 30.56 284.48 30.08 A 78.27 78.27 0 0 1 284.372 31.046 A 91.674 91.674 0 0 1 284.08 33.28 Q 283.84 34.96 283.6 36.72 Q 283.36 38.48 283.16 40.24 Q 282.96 42 282.96 43.84 Q 282.96 46.36 283.474 48.425 A 12.226 12.226 0 0 0 285.08 52.2 Z" id="8" vector-effect="non-scaling-stroke"/></g></svg>
